<svg width="30" height="30" viewBox="0 0 30 30" fill="none" xmlns="http://www.w3.org/2000/svg">
<g id="ph:user-bold">
<path id="Vector" d="M27.4662 24.6095C25.8595 21.7896 23.3507 19.5924 20.3435 18.3716C21.839 17.25 22.9436 15.6864 23.5009 13.9021C24.0583 12.1179 24.0401 10.2035 23.449 8.43018C22.8579 6.65684 21.7238 5.11444 20.2074 4.02146C18.6909 2.92848 16.8691 2.34033 14.9998 2.34033C13.1305 2.34033 11.3086 2.92848 9.79222 4.02146C8.27579 5.11444 7.1417 6.65684 6.55058 8.43018C5.95947 10.2035 5.9413 12.1179 6.49866 13.9021C7.05601 15.6864 8.16063 17.25 9.65604 18.3716C6.64892 19.5924 4.14008 21.7896 2.53339 24.6095C2.43383 24.7696 2.36748 24.948 2.33827 25.1343C2.30906 25.3205 2.3176 25.5107 2.36337 25.6936C2.40914 25.8764 2.49122 26.0483 2.60472 26.1988C2.71821 26.3493 2.86081 26.4755 3.02404 26.5698C3.18727 26.6641 3.3678 26.7246 3.55489 26.7477C3.74197 26.7709 3.93181 26.7562 4.1131 26.7045C4.29439 26.6528 4.46343 26.5652 4.61019 26.4469C4.75695 26.3285 4.87841 26.1819 4.96737 26.0157C7.09081 22.3454 10.8408 20.1563 14.9998 20.1563C19.1588 20.1563 22.9088 22.3466 25.0322 26.0157C25.225 26.3257 25.5308 26.5486 25.8849 26.6372C26.239 26.7259 26.6138 26.6733 26.9299 26.4907C27.246 26.3081 27.4786 26.0097 27.5787 25.6586C27.6788 25.3076 27.6385 24.9313 27.4662 24.6095ZM8.90604 11.2501C8.90604 10.0449 9.26343 8.8667 9.93302 7.86459C10.6026 6.86248 11.5543 6.08143 12.6678 5.62021C13.7813 5.15899 15.0066 5.03831 16.1886 5.27344C17.3707 5.50857 18.4565 6.08894 19.3087 6.94116C20.1609 7.79339 20.7413 8.87919 20.9765 10.0613C21.2116 11.2433 21.0909 12.4686 20.6297 13.5821C20.1685 14.6956 19.3874 15.6473 18.3853 16.3169C17.3832 16.9865 16.205 17.3438 14.9998 17.3438C13.3842 17.342 11.8353 16.6994 10.6929 15.557C9.55052 14.4146 8.9079 12.8657 8.90604 11.2501Z" fill="white"/>
</g>
</svg>
